<?xml version="1.0" standalone="no"?>
<!DOCTYPE svg PUBLIC "-//W3C//DTD SVG 20010904//EN"
 "http://www.w3.org/TR/2001/REC-SVG-20010904/DTD/svg10.dtd">
<svg version="1.0" xmlns="http://www.w3.org/2000/svg"
 width="1000.000000pt" height="1000.000000pt" viewBox="0 0 1000.000000 1000.000000"
 preserveAspectRatio="xMidYMid meet">
<metadata>
Created by potrace 1.14, written by Peter Selinger 2001-2017
</metadata>
<g transform="translate(0.000000,1000.000000) scale(0.100000,-0.100000)"
fill="#000000" stroke="none">
<path d="M4758 9595 c-1 -1 -48 -6 -103 -9 -55 -4 -116 -8 -135 -11 -19 -2
-55 -6 -80 -9 -370 -43 -803 -155 -1165 -301 -262 -105 -576 -272 -823 -436
-72 -49 -138 -93 -145 -99 -6 -6 -66 -52 -132 -102 -66 -51 -122 -95 -125 -98
-3 -4 -41 -37 -85 -75 -92 -78 -346 -332 -420 -419 -27 -32 -55 -64 -60 -70
-6 -6 -38 -45 -70 -86 -33 -41 -64 -80 -70 -86 -5 -6 -17 -21 -25 -34 -8 -12
-40 -56 -71 -98 -52 -72 -218 -329 -232 -362 -4 -8 -16 -30 -27 -48 -31 -50
-161 -308 -194 -382 -106 -239 -243 -644 -272 -808 -3 -14 -13 -62 -24 -107
-17 -76 -42 -216 -55 -315 -4 -25 -8 -58 -11 -75 -4 -30 -7 -53 -21 -220 -10
-115 -10 -559 0 -690 10 -129 19 -216 32 -296 2 -13 9 -58 15 -99 68 -442 249
-991 448 -1360 149 -276 200 -361 336 -553 69 -97 218 -292 235 -307 3 -3 35
-39 71 -80 146 -169 413 -422 620 -586 224 -177 490 -344 776 -487 276 -139
410 -192 735 -295 70 -22 375 -98 424 -105 17 -3 71 -12 120 -20 103 -18 138
-23 215 -32 30 -4 66 -9 79 -11 167 -25 836 -25 966 1 11 2 43 7 70 10 80 9
128 15 155 20 14 3 41 7 60 10 324 51 743 174 1028 301 29 13 55 24 58 24 12
0 270 130 384 193 257 144 579 367 745 517 17 15 55 49 85 76 75 66 314 306
377 379 28 33 61 71 73 85 12 14 52 63 89 110 36 47 69 90 74 95 203 258 444
685 589 1048 36 88 122 333 133 377 2 8 20 73 39 144 30 109 50 197 81 356 12
59 35 210 40 265 4 33 8 74 11 90 26 207 26 721 0 950 -19 160 -19 164 -43
300 -8 50 -17 104 -20 120 -11 75 -98 405 -139 531 -174 527 -425 994 -773
1434 -41 52 -87 109 -102 125 -15 17 -48 55 -75 85 -69 80 -285 294 -384 381
-609 535 -1347 902 -2130 1059 -120 24 -314 53 -435 65 -33 3 -78 8 -100 11
-44 6 -611 14 -617 9z"/>
</g>
</svg>
